<svg xmlns="http://www.w3.org/2000/svg" xmlns:xlink="http://www.w3.org/1999/xlink" width="32" height="32" viewBox="0 0 32 32"><defs><clipPath id="b"><rect width="32" height="32"/></clipPath></defs><g id="a"><path d="M4.058,2.637a1,1,0,0,1,1.883,0L9.523,12.664A1,1,0,0,1,8.581,14H1.419a1,1,0,0,1-.942-1.336Z" transform="translate(3 10)" fill="#fff"/><path d="M4.058,2.637a1,1,0,0,1,1.883,0L9.523,12.664A1,1,0,0,1,8.581,14H1.419a1,1,0,0,1-.942-1.336Z" transform="translate(11 1)" fill="#fff"/><path d="M4.058,2.637a1,1,0,0,1,1.883,0L9.523,12.664A1,1,0,0,1,8.581,14H1.419a1,1,0,0,1-.942-1.336Z" transform="translate(19 10)" fill="#fff"/><rect width="3" height="7" transform="translate(6 20)" fill="#fff"/><rect width="3" height="7" transform="translate(14 11)" fill="#fff"/><rect width="3" height="7" transform="translate(22 20)" fill="#fff"/></g></svg>